<svg xmlns="http://www.w3.org/2000/svg" width="1200" height="630" role="img" viewBox="0 0 1200 630"><title>Reinstate</title><rect width="1200" height="630" fill="#1d2723"/><rect width="1200" height="284" x="0" y="346" fill="#16201c"/><line x1="0" x2="1200" y1="346" y2="346" stroke="#2b3831" stroke-width="2"/><rect width="8" height="630" x="0" y="0" fill="#b8ff3c"/><g stroke-linejoin="round" transform="translate(696.0,390.6) scale(1.3125)"><line x1="0" x2="-207.8" y1="-40" y2="80" stroke="#253029" stroke-width="1.8"/><line x1="34.6" x2="-173.2" y1="-20" y2="100" stroke="#253029" stroke-width="1.8"/><line x1="69.3" x2="-138.6" y1="0" y2="120" stroke="#253029" stroke-width="1.8"/><line x1="103.9" x2="-103.9" y1="20" y2="140" stroke="#253029" stroke-width="1.8"/><line x1="138.6" x2="-69.3" y1="40" y2="160" stroke="#253029" stroke-width="1.8"/><line x1="173.2" x2="-34.6" y1="60" y2="180" stroke="#253029" stroke-width="1.8"/><line x1="207.8" x2="0" y1="80" y2="200" stroke="#253029" stroke-width="1.8"/><line x1="242.5" x2="34.6" y1="100" y2="220" stroke="#253029" stroke-width="1.8"/><line x1="277.1" x2="69.3" y1="120" y2="240" stroke="#253029" stroke-width="1.8"/><line x1="0" x2="277.1" y1="-40" y2="120" stroke="#253029" stroke-width="1.8"/><line x1="-34.6" x2="242.5" y1="-20" y2="140" stroke="#253029" stroke-width="1.8"/><line x1="-69.3" x2="207.8" y1="0" y2="160" stroke="#253029" stroke-width="1.8"/><line x1="-103.9" x2="173.2" y1="20" y2="180" stroke="#253029" stroke-width="1.8"/><line x1="-138.6" x2="138.6" y1="40" y2="200" stroke="#253029" stroke-width="1.8"/><line x1="-173.2" x2="103.9" y1="60" y2="220" stroke="#253029" stroke-width="1.8"/><line x1="-207.8" x2="69.3" y1="80" y2="240" stroke="#253029" stroke-width="1.8"/><polygon fill="#121b17" stroke="#131f1a" stroke-linejoin="round" stroke-width="3" points="147.2 35 86.6 70 86.6 140 147.2 105"/><polygon fill="#1a2621" stroke="#131f1a" stroke-linejoin="round" stroke-width="3" points="26 35 86.6 70 86.6 140 26 105"/><polygon fill="#2a3831" stroke="#131f1a" stroke-linejoin="round" stroke-width="3" points="86.6 0 147.2 35 86.6 70 26 35"/><polygon fill="#78b31d" stroke="#e9efe3" stroke-linejoin="round" stroke-width="2.4" points="105.7 26 93.5 33 93.5 43 105.7 36"/><polygon fill="#96d92a" stroke="#e9efe3" stroke-linejoin="round" stroke-width="2.4" points="74.5 22 93.5 33 93.5 43 74.5 32"/><polygon fill="#b8ff3c" stroke="#e9efe3" stroke-linejoin="round" stroke-width="2.4" points="86.6 15 105.7 26 93.5 33 74.5 22"/><polygon fill="#c3c9bc" stroke="#131f1a" stroke-linejoin="round" stroke-width="2.8" points="52 26 1.7 55 1.7 69 52 40"/><polygon fill="#e2e6dc" stroke="#131f1a" stroke-linejoin="round" stroke-width="2.8" points="-76.2 10 1.7 55 1.7 69 -76.2 24"/><polygon fill="#fdfef9" stroke="#131f1a" stroke-linejoin="round" stroke-width="2.8" points="-26 -19 52 26 1.7 55 -76.2 10"/><polygon fill="#3d8ab5" stroke="#131f1a" stroke-linejoin="round" stroke-width="2.8" points="52 0 1.7 29 1.7 43 52 14"/><polygon fill="#57aad6" stroke="#131f1a" stroke-linejoin="round" stroke-width="2.8" points="-76.2 -16 1.7 29 1.7 43 -76.2 -2"/><polygon fill="#7ecdf5" stroke="#131f1a" stroke-linejoin="round" stroke-width="2.8" points="-26 -45 52 0 1.7 29 -76.2 -16"/><polygon fill="#bd8d1b" stroke="#131f1a" stroke-linejoin="round" stroke-width="2.8" points="52 -26 1.7 3 1.7 17 52 -12"/><polygon fill="#e0ad2c" stroke="#131f1a" stroke-linejoin="round" stroke-width="2.8" points="-76.2 -42 1.7 3 1.7 17 -76.2 -28"/><polygon fill="#ffce4a" stroke="#131f1a" stroke-linejoin="round" stroke-width="2.8" points="-26 -71 52 -26 1.7 3 -76.2 -42"/><polygon fill="#78b31d" stroke="#131f1a" stroke-linejoin="round" stroke-width="2.8" points="52 -52 1.7 -23 1.7 -9 52 -38"/><polygon fill="#96d92a" stroke="#131f1a" stroke-linejoin="round" stroke-width="2.8" points="-76.2 -68 1.7 -23 1.7 -9 -76.2 -54"/><polygon fill="#b8ff3c" stroke="#131f1a" stroke-linejoin="round" stroke-width="2.8" points="-26 -97 52 -52 1.7 -23 -76.2 -68"/><polygon fill="#c3c9bc" stroke="#131f1a" stroke-linejoin="round" stroke-width="2.8" points="17.3 88 -22.5 111 -22.5 123 17.3 100"/><polygon fill="#e2e6dc" stroke="#131f1a" stroke-linejoin="round" stroke-width="2.8" points="-83.1 76 -22.5 111 -22.5 123 -83.1 88"/><polygon fill="#fdfef9" stroke="#131f1a" stroke-linejoin="round" stroke-width="2.8" points="-43.3 53 17.3 88 -22.5 111 -83.1 76"/><polygon fill="#3d8ab5" stroke="#131f1a" stroke-linejoin="round" stroke-width="2.8" points="17.3 76 -22.5 99 -22.5 111 17.3 88"/><polygon fill="#57aad6" stroke="#131f1a" stroke-linejoin="round" stroke-width="2.8" points="-83.1 64 -22.5 99 -22.5 111 -83.1 76"/><polygon fill="#7ecdf5" stroke="#131f1a" stroke-linejoin="round" stroke-width="2.8" points="-43.3 41 17.3 76 -22.5 99 -83.1 64"/><polygon fill="#bd8d1b" stroke="#131f1a" stroke-linejoin="round" stroke-width="2.8" points="17.3 64 -22.5 87 -22.5 99 17.3 76"/><polygon fill="#e0ad2c" stroke="#131f1a" stroke-linejoin="round" stroke-width="2.8" points="-83.1 52 -22.5 87 -22.5 99 -83.1 64"/><polygon fill="#ffce4a" stroke="#131f1a" stroke-linejoin="round" stroke-width="2.8" points="-43.3 29 17.3 64 -22.5 87 -83.1 52"/><polygon fill="#78b31d" stroke="#131f1a" stroke-linejoin="round" stroke-width="2.8" points="17.3 52 -22.5 75 -22.5 87 17.3 64"/><polygon fill="#96d92a" stroke="#131f1a" stroke-linejoin="round" stroke-width="2.8" points="-83.1 40 -22.5 75 -22.5 87 -83.1 52"/><polygon fill="#b8ff3c" stroke="#131f1a" stroke-linejoin="round" stroke-width="2.8" points="-43.3 17 17.3 52 -22.5 75 -83.1 40"/></g><g aria-label="Reinstate logo"><rect width="100" height="100" x="42" y="126.4" fill="#131f1a" rx="21.88"/><rect width="43.75" height="43.75" x="63.88" y="148.28" fill="none" stroke="#f4f6ef" stroke-width="5.62" rx="8.59"/><rect width="43.75" height="43.75" x="76.38" y="160.78" fill="#131f1a" stroke="#f4f6ef" stroke-width="5.62" rx="8.59"/><path fill="none" stroke="#f4f6ef" stroke-linecap="round" stroke-linejoin="round" stroke-width="4.22" d="M89.66,177.96 L95.91,184.21 L89.66,190.46"/><path fill="none" stroke="#f4f6ef" stroke-linecap="round" stroke-linejoin="round" stroke-width="4.22" d="M99.81,190.46 H108.41"/></g><text x="158" y="163.8" fill="#e9efe3" font-family="ui-sans-serif, system-ui, -apple-system, 'Segoe UI', sans-serif" font-size="52" font-weight="800" letter-spacing="-.04em">reinstate</text><text x="158" y="264.6" fill="#8a9a90" font-family="ui-sans-serif, system-ui, -apple-system, 'Segoe UI', sans-serif" font-size="26" font-weight="600">Continuity layer for coding-agent work</text><text x="158" y="327.6" fill="#8a9a90" font-family="ui-monospace, SFMono-Regular, Menlo, monospace" font-size="16" font-weight="500">search · resume · handoff · encrypted sync</text><text x="158" y="491.4" fill="#8a9a90" font-family="ui-monospace, SFMono-Regular, Menlo, monospace" font-size="14" font-weight="500">reinstate.dev · rein</text></svg>